<svg width="257" height="384" viewBox="0 0 257 384" fill="none" xmlns="http://www.w3.org/2000/svg">
<g clip-path="url(#clip0_307_2)">
<path d="M64.5 384C99.828 384 128.5 355.328 128.5 320V256H64.5C29.172 256 0.5 284.672 0.5 320C0.5 355.328 29.172 384 64.5 384Z" fill="#0ACF83"/>
<path d="M0.5 192C0.5 156.672 29.172 128 64.5 128H128.5V256H64.5C29.172 256 0.5 227.328 0.5 192Z" fill="#A259FF"/>
<path d="M0.5 64C0.5 28.672 29.172 0 64.5 0H128.5V128H64.5C29.172 128 0.5 99.328 0.5 64Z" fill="#F24E1E"/>
<path d="M128.5 0H192.5C227.828 0 256.5 28.672 256.5 64C256.5 99.328 227.828 128 192.5 128H128.5V0Z" fill="#FF7262"/>
<path d="M256.5 192C256.5 227.328 227.828 256 192.5 256C157.172 256 128.5 227.328 128.5 192C128.5 156.672 157.172 128 192.5 128C227.828 128 256.5 156.672 256.5 192Z" fill="#1ABCFE"/>
</g>
<defs>
<clipPath id="clip0_307_2">
<rect width="256" height="384" fill="white" transform="translate(0.5)"/>
</clipPath>
</defs>
</svg>
