<svg width="257" height="256" viewBox="0 0 257 256" fill="none" xmlns="http://www.w3.org/2000/svg">
<g clip-path="url(#clip0_307_29)">
<path d="M251.672 116.594L139.9 4.828C133.467 -1.609 123.027 -1.609 116.586 4.828L93.376 28.038L122.819 57.481C129.661 55.169 137.507 56.72 142.961 62.174C148.441 67.663 149.981 75.576 147.613 82.44L175.988 110.816C182.853 108.451 190.774 109.981 196.257 115.473C203.92 123.133 203.92 135.548 196.257 143.213C188.592 150.879 176.177 150.879 168.508 143.213C162.744 137.443 161.32 128.978 164.238 121.877L137.776 95.415L137.773 165.052C139.691 166 141.443 167.253 142.961 168.762C150.624 176.422 150.624 188.838 142.961 196.509C135.296 204.171 122.875 204.171 115.221 196.509C107.558 188.838 107.558 176.423 115.221 168.763C117.057 166.926 119.24 165.471 121.642 164.482V94.196C119.236 93.2139 117.053 91.7581 115.221 89.915C109.415 84.117 108.019 75.598 110.994 68.469L81.97 39.442L5.33 116.077C-1.11 122.52 -1.11 132.961 5.33 139.399L117.104 251.167C123.539 257.605 133.977 257.605 140.42 251.167L251.671 139.918C258.109 133.478 258.109 123.031 251.671 116.594" fill="#DE4C36"/>
</g>
<defs>
<clipPath id="clip0_307_29">
<rect width="256" height="256" fill="white" transform="translate(0.5)"/>
</clipPath>
</defs>
</svg>
