<svg width="257" height="361" viewBox="0 0 257 361" fill="none" xmlns="http://www.w3.org/2000/svg">
<g clip-path="url(#clip0_307_8)">
<path d="M256.055 70.766L232.814 331.126L128.344 360.088L24.1619 331.166L0.944946 70.766H256.055Z" fill="#E44D26"/>
<path d="M128.5 337.95L212.917 314.547L232.777 92.057H128.5V337.95Z" fill="#F16529"/>
<path d="M83.32 155.932H128.5V123.995H48.417L49.181 132.563L57.031 220.573H128.5V188.636H86.239L83.32 155.932V155.932ZM90.518 236.542H58.458L62.932 286.688L128.353 304.848L128.5 304.808V271.58L128.36 271.617L92.792 262.013L90.518 236.542Z" fill="#EBEBEB"/>
<path d="M24.6801 0H40.9101V16.035H55.7571V0H71.9881V48.558H55.7581V32.298H40.9111V48.558H24.6811V0H24.6801ZM93.3301 16.103H79.0441V0H123.858V16.103H109.563V48.558H93.3331V16.103H93.3321H93.3301ZM130.97 0H147.893L158.303 17.062L168.703 0H185.633V48.558H169.469V24.49L158.303 41.755H158.023L146.85 24.49V48.558H130.97V0ZM193.71 0H209.945V32.508H232.769V48.558H193.709V0H193.71Z" fill="black"/>
<path d="M128.39 220.573H167.717L164.009 261.993L128.389 271.607V304.833L193.862 286.688L194.342 281.292L201.848 197.212L202.627 188.636H128.39V220.573ZM128.39 155.854V155.932H205.533L206.173 148.754L207.629 132.563L208.392 123.995H128.39V155.855V155.854Z" fill="white"/>
</g>
<defs>
<clipPath id="clip0_307_8">
<rect width="256" height="361" fill="white" transform="translate(0.5)"/>
</clipPath>
</defs>
</svg>
