<svg width="257" height="228" viewBox="0 0 257 228" fill="none" xmlns="http://www.w3.org/2000/svg">
<g clip-path="url(#clip0_307_27)">
<path d="M210.983 73.824C208.259 72.8893 205.511 72.0233 202.743 71.227C203.208 69.327 203.636 67.45 204.016 65.606C210.254 35.325 206.176 10.93 192.247 2.898C178.892 -4.802 157.051 3.227 134.993 22.424C132.819 24.3193 130.693 26.2693 128.618 28.272C127.229 26.9403 125.815 25.6344 124.377 24.355C101.259 3.829 78.087 -4.822 64.173 3.233C50.83 10.957 46.879 33.89 52.495 62.588C53.0537 65.4302 53.6846 68.2578 54.387 71.068C51.107 72 47.942 72.992 44.913 74.048C17.809 83.498 0.5 98.307 0.5 113.668C0.5 129.533 19.082 145.446 47.312 155.095C49.6007 155.874 51.9084 156.596 54.233 157.26C53.478 160.287 52.8078 163.334 52.223 166.398C46.869 194.598 51.05 216.989 64.357 224.664C78.101 232.59 101.169 224.444 123.63 204.809C125.451 203.213 127.233 201.571 128.972 199.886C131.22 202.055 133.527 204.16 135.892 206.2C157.65 224.922 179.138 232.482 192.432 224.786C206.163 216.837 210.626 192.783 204.832 163.518C204.376 161.225 203.864 158.944 203.297 156.676C204.917 156.196 206.507 155.702 208.057 155.188C237.405 145.465 256.5 129.745 256.5 113.668C256.5 98.251 238.632 83.342 210.983 73.824V73.824ZM204.618 144.808C203.218 145.271 201.782 145.718 200.318 146.153C197.078 135.896 192.706 124.99 187.355 113.721C192.461 102.721 196.665 91.954 199.814 81.764C202.433 82.522 204.974 83.321 207.424 84.164C231.114 92.32 245.564 104.377 245.564 113.668C245.564 123.564 229.958 136.411 204.618 144.808V144.808ZM194.104 165.642C196.666 178.582 197.031 190.282 195.334 199.429C193.81 207.648 190.744 213.127 186.952 215.322C178.885 219.992 161.632 213.922 143.025 197.91C140.825 196.013 138.679 194.056 136.588 192.04C143.802 184.151 151.011 174.98 158.047 164.794C170.423 163.696 182.115 161.9 192.718 159.449C193.229 161.502 193.691 163.567 194.104 165.642V165.642ZM87.776 214.515C79.894 217.298 73.616 217.378 69.821 215.19C61.746 210.533 58.389 192.554 62.968 168.438C63.5123 165.588 64.1356 162.754 64.837 159.939C75.323 162.259 86.93 163.927 99.335 164.933C106.419 174.9 113.836 184.061 121.311 192.083C119.722 193.62 118.096 195.118 116.434 196.575C106.501 205.257 96.548 211.417 87.776 214.515V214.515ZM50.85 144.747C38.367 140.48 28.058 134.935 20.992 128.884C14.642 123.447 11.437 118.048 11.437 113.668C11.437 104.346 25.334 92.456 48.513 84.375C51.326 83.395 54.27 82.47 57.325 81.602C60.529 92.022 64.731 102.917 69.802 113.934C64.665 125.114 60.403 136.183 57.168 146.726C55.0461 146.118 52.9395 145.458 50.85 144.747V144.747ZM63.228 60.487C58.417 35.9 61.612 17.353 69.653 12.698C78.217 7.74 97.155 14.809 117.116 32.533C118.418 33.6914 119.698 34.8732 120.957 36.078C113.519 44.065 106.17 53.158 99.149 63.066C87.109 64.182 75.584 65.974 64.988 68.375C64.3352 65.7612 63.7483 63.1314 63.228 60.488V60.487ZM173.655 87.755C171.152 83.4319 168.557 79.1633 165.87 74.952C174.038 75.985 181.864 77.356 189.213 79.032C187.007 86.104 184.257 93.497 181.02 101.077C178.654 96.5877 176.198 92.1462 173.655 87.755V87.755ZM128.623 43.894C133.667 49.359 138.719 55.46 143.688 62.08C133.608 61.6039 123.511 61.6019 113.431 62.074C118.405 55.515 123.5 49.422 128.623 43.894ZM83.302 87.83C80.7903 92.1858 78.3807 96.5997 76.075 101.068C72.891 93.515 70.166 86.088 67.941 78.916C75.245 77.282 83.034 75.946 91.15 74.932C88.4334 79.169 85.8167 83.4692 83.302 87.829V87.83ZM91.383 153.182C82.998 152.246 75.092 150.979 67.79 149.389C70.05 142.089 72.835 134.504 76.088 126.789C78.4028 131.261 80.8225 135.677 83.345 140.035C85.939 144.515 88.625 148.903 91.383 153.182ZM128.925 184.212C123.741 178.62 118.571 172.433 113.522 165.779C118.424 165.971 123.421 166.069 128.5 166.069C133.718 166.069 138.876 165.952 143.953 165.726C138.968 172.5 133.935 178.696 128.925 184.212ZM181.123 126.395C184.545 134.195 187.429 141.74 189.719 148.915C182.297 150.609 174.283 151.973 165.839 152.986C168.545 148.697 171.165 144.354 173.698 139.96C176.273 135.494 178.749 130.971 181.123 126.395V126.395ZM164.225 134.496C160.347 141.232 156.251 147.841 151.944 154.311C144.142 154.864 136.322 155.138 128.5 155.134C120.533 155.134 112.784 154.886 105.322 154.402C100.902 147.947 96.7282 141.327 92.809 134.556H92.81C88.9092 127.821 85.2656 120.94 81.887 113.929C85.257 106.916 88.8895 100.032 92.777 93.292L92.776 93.293C96.662 86.5512 100.803 79.9595 105.189 73.532C112.802 72.956 120.609 72.656 128.499 72.656H128.5C136.426 72.656 144.243 72.959 151.854 73.539C156.196 79.9569 160.31 86.5259 164.189 93.234C168.089 99.9592 171.77 106.809 175.225 113.774C171.806 120.81 168.137 127.721 164.225 134.496V134.496ZM186.785 12.372C195.357 17.316 198.691 37.253 193.305 63.398C192.961 65.066 192.575 66.765 192.155 68.488C181.533 66.036 170 64.213 157.925 63.08C150.891 53.063 143.602 43.956 136.285 36.072C138.203 34.2235 140.166 32.423 142.173 30.672C161.073 14.225 178.737 7.731 186.785 12.372V12.372ZM128.5 90.808C141.125 90.808 151.36 101.043 151.36 113.668C151.36 126.293 141.125 136.528 128.5 136.528C115.875 136.528 105.64 126.293 105.64 113.668C105.64 101.043 115.875 90.808 128.5 90.808V90.808Z" fill="#00D8FF"/>
</g>
<defs>
<clipPath id="clip0_307_27">
<rect width="256" height="228" fill="white" transform="translate(0.5)"/>
</clipPath>
</defs>
</svg>
