<svg width="257" height="192" viewBox="0 0 257 192" fill="none" xmlns="http://www.w3.org/2000/svg">
<g clip-path="url(#clip0_307_20)">
<path d="M220.781 110.514C211.875 110.56 204.134 112.705 197.653 115.876C195.274 111.166 192.896 106.97 192.477 103.892C192.01 100.302 191.451 98.11 192.01 93.82C192.57 89.53 195.088 83.421 195.041 82.955C194.995 82.489 194.481 80.297 189.352 80.251C184.223 80.204 179.793 81.23 179.28 82.582C178.767 83.934 177.788 87.012 177.135 90.182C176.249 94.846 166.877 111.492 161.515 120.212C159.789 116.809 158.297 113.824 157.97 111.446C157.504 107.856 156.944 105.664 157.504 101.374C158.064 97.084 160.582 90.976 160.535 90.509C160.488 90.043 159.975 87.851 154.846 87.805C149.716 87.758 145.286 88.784 144.774 90.136C144.261 91.489 143.701 94.659 142.629 97.737C141.556 100.815 129.106 128.607 125.842 135.787C124.523 138.693 123.139 141.57 121.692 144.414C121.692 144.414 121.645 144.554 121.505 144.787C121.05 145.679 120.584 146.565 120.107 147.445V147.491C119.407 148.751 118.661 149.916 118.288 149.916C118.008 149.916 117.495 146.559 118.381 141.989C120.246 132.337 124.676 117.322 124.63 116.809C124.63 116.529 125.469 113.918 121.739 112.565C118.101 111.213 116.796 113.451 116.469 113.451C116.143 113.451 115.909 114.244 115.909 114.244C115.909 114.244 119.967 97.364 108.169 97.364C100.802 97.364 90.636 105.431 85.6 112.705C79.8751 115.82 74.1551 118.945 68.44 122.078C65.69 123.617 62.845 125.156 60.187 126.601C60 126.415 59.814 126.181 59.627 125.995C45.358 110.747 18.966 99.975 20.085 79.505C20.505 72.044 23.069 52.459 70.772 28.678C110.034 9.326 141.277 14.688 146.686 26.579C154.426 43.553 129.946 75.075 89.377 79.644C73.896 81.37 65.782 75.401 63.731 73.163C61.586 70.831 61.259 70.691 60.466 71.158C59.161 71.858 60 73.956 60.466 75.168C61.679 78.338 66.668 83.934 75.108 86.686C82.569 89.11 100.708 90.463 122.671 81.976C147.245 72.463 166.457 46.024 160.815 23.875C155.172 1.399 117.868 -6.015 82.569 6.528C61.586 13.99 38.83 25.74 22.463 41.035C3.01797 59.22 -0.0600322 75.028 1.19897 81.65C5.72297 105.151 38.131 120.446 51.094 131.777C50.441 132.15 49.834 132.477 49.322 132.757C42.84 135.974 18.126 148.89 11.971 162.553C4.97697 178.034 13.091 189.133 18.453 190.624C35.1 195.241 52.213 186.941 61.399 173.231C70.585 159.522 69.466 141.709 65.223 133.549C65.176 133.456 65.13 133.362 65.036 133.269C66.715 132.29 68.44 131.264 70.119 130.285C73.2048 128.461 76.3299 126.704 79.492 125.015C77.906 129.352 76.74 134.528 76.181 141.989C75.481 150.756 79.071 162.133 83.781 166.609C85.88 168.569 88.351 168.615 89.937 168.615C95.439 168.615 97.911 164.045 100.662 158.636C104.019 152.015 107.05 144.321 107.05 144.321C107.05 144.321 103.273 165.118 113.532 165.118C117.262 165.118 121.039 160.268 122.718 157.797V157.843C122.718 157.843 122.811 157.703 122.998 157.377C123.371 156.771 123.604 156.397 123.604 156.397V156.305C125.096 153.693 128.454 147.771 133.443 137.932C139.878 125.249 146.08 109.395 146.08 109.395C146.08 109.395 146.64 113.265 148.551 119.7C149.671 123.477 152.001 127.627 153.867 131.637C152.375 133.736 151.442 134.901 151.442 134.901L151.489 134.948C150.276 136.533 148.971 138.258 147.525 139.938C142.442 145.999 136.381 152.948 135.541 154.952C134.561 157.33 134.795 159.056 136.661 160.455C138.013 161.481 140.437 161.62 142.909 161.481C147.479 161.154 150.696 160.035 152.281 159.336C154.753 158.45 157.644 157.097 160.348 155.092C165.338 151.408 168.368 146.139 168.089 139.192C167.949 135.368 166.69 131.544 165.151 127.953C165.618 127.301 166.037 126.648 166.504 125.995C174.384 114.477 180.493 101.84 180.493 101.84C180.493 101.84 181.053 105.71 182.964 112.146C183.897 115.41 185.809 118.954 187.487 122.404C180.073 128.42 175.503 135.414 173.871 139.984C170.934 148.471 173.218 152.294 177.555 153.18C179.513 153.6 182.311 152.667 184.363 151.781C186.974 150.942 190.052 149.497 192.99 147.351C197.98 143.668 202.782 138.538 202.502 131.591C202.362 128.42 201.523 125.295 200.357 122.264C206.652 119.654 214.766 118.208 225.117 119.42C247.314 122.031 251.697 135.88 250.857 141.71C250.018 147.538 245.355 150.709 243.817 151.688C242.277 152.668 241.765 152.994 241.905 153.693C242.091 154.719 242.837 154.673 244.143 154.486C245.962 154.16 255.801 149.776 256.22 139.051C256.92 125.342 243.863 110.374 220.781 110.514V110.514ZM49.555 168.242C42.187 176.262 31.929 179.293 27.499 176.729C22.743 173.977 24.608 162.133 33.654 153.647C39.156 148.471 46.244 143.667 50.954 140.73C52.026 140.077 53.612 139.145 55.524 137.979C55.85 137.792 56.037 137.699 56.037 137.699L57.156 136.999C60.466 149.123 57.296 159.802 49.555 168.242V168.242ZM103.18 131.777C100.615 138.026 95.253 154.02 91.989 153.134C89.191 152.388 87.465 140.264 91.429 128.28C93.434 122.264 97.677 115.083 100.149 112.286C104.159 107.809 108.589 106.316 109.661 108.136C111.014 110.514 104.765 127.86 103.18 131.777V131.777ZM147.432 152.947C146.359 153.507 145.334 153.88 144.867 153.6C144.541 153.413 145.334 152.667 145.334 152.667C145.334 152.667 150.883 146.699 153.074 143.994C154.334 142.409 155.825 140.544 157.411 138.445V139.051C157.411 146.186 150.509 150.989 147.431 152.947H147.432ZM181.565 145.16C180.772 144.6 180.912 142.735 183.57 136.906C184.596 134.621 187.02 130.798 191.171 127.114C191.637 128.606 191.964 130.052 191.917 131.404C191.87 140.404 185.436 143.761 181.565 145.16Z" fill="#CD6799"/>
</g>
<defs>
<clipPath id="clip0_307_20">
<rect width="256" height="192" fill="white" transform="translate(0.5)"/>
</clipPath>
</defs>
</svg>
