<svg width="257" height="361" viewBox="0 0 257 361" fill="none" xmlns="http://www.w3.org/2000/svg">
<g clip-path="url(#clip0_307_14)">
<path d="M128.344 360.088L24.1621 331.166L0.945068 70.766H256.055L232.814 331.126L128.344 360.088V360.088Z" fill="#264DE4"/>
<path d="M212.917 314.547L232.777 92.057H128.5V337.95L212.917 314.547V314.547Z" fill="#2965F1"/>
<path d="M54.169 188.636L57.031 220.573H128.5V188.636H54.169ZM48.417 123.995L51.32 155.932H128.5V123.995H48.417V123.995ZM128.5 271.58L128.36 271.617L92.792 262.013L90.518 236.542H58.458L62.932 286.688L128.353 304.848L128.5 304.808V271.58Z" fill="#EBEBEB"/>
<path d="M60.9839 0H99.6639V16.176H77.1599V32.352H99.6659V48.527H60.9839V0ZM107.401 0H146.082V14.066H123.577V16.879H146.082V49.231H107.402V34.46H129.907V31.647H107.4V0H107.401ZM153.819 0H192.5V14.066H169.995V16.879H192.5V49.231H153.819V34.46H176.324V31.647H153.82V0H153.819Z" fill="black"/>
<path d="M202.627 188.636L208.392 123.995H128.39V155.932H173.392L170.486 188.636H128.39V220.573H167.717L164.009 261.993L128.389 271.607V304.833L193.862 286.688L194.342 281.292L201.848 197.212L202.627 188.636V188.636Z" fill="white"/>
</g>
<defs>
<clipPath id="clip0_307_14">
<rect width="256" height="361" fill="white" transform="translate(0.5)"/>
</clipPath>
</defs>
</svg>
