<svg width="257" height="329" viewBox="0 0 257 329" fill="none" xmlns="http://www.w3.org/2000/svg">
<g clip-path="url(#clip0_307_34)">
<path d="M77.0009 203.351C67.2509 195.681 56.8479 188.331 49.7409 177.974C34.7799 159.71 23.2639 138.569 15.3909 116.349C10.6309 101.899 9.00088 86.408 2.86088 72.519C-3.55312 62.428 3.96588 51.405 15.0179 48.199C19.9349 47.251 28.5859 42.609 18.1429 45.931C8.77888 52.797 7.87688 39.691 17.4769 38.861C24.0289 37.992 26.4409 32.631 24.1979 27.805C17.1619 23.215 41.2529 18.179 29.1299 11.332C16.5099 -2.288 46.7899 -4.91 39.3179 10.561C37.5319 22.456 60.4839 8.376 55.1539 22.115C60.5689 28.714 75.4259 23.62 75.0529 32.872C82.9389 33.414 85.6459 40.045 93.0409 40.555C100.718 44.021 114.621 46.747 117.229 55.392C109.619 61.415 92.0019 42.949 91.1509 59.624C93.4529 84.262 92.8659 109.641 101.877 133.102C106.139 147.306 116.477 158.487 125.808 169.552C134.741 180.386 146.838 188.018 159.171 194.439C169.986 199.539 181.646 202.919 193.436 205.045C198.216 201.389 206.657 187.795 214.111 193.523C214.471 199.972 199.315 206.994 213.4 206.281C221.678 203.783 227.413 212.675 234.226 204.652C240.504 212.088 260.316 199.905 255.851 215.102C249.809 219 241.001 216.645 234.953 222.008C224.981 217.025 217.041 226.461 205.997 225.271C193.737 227.467 181.259 228.351 168.83 228.369C148.434 226.76 127.608 226.081 108.206 218.979C97.2729 215.803 86.6079 209.577 77.0009 203.351V203.351ZM94.2249 210.819C104.897 215.429 115.334 220.294 127.032 221.765C145.59 224.342 164.755 228.317 183.378 224.695C174.95 220.89 166.233 226.173 157.837 221.975C147.767 224.139 136.959 221.419 126.717 220.078C115.077 214.894 102.511 211.33 91.6099 204.593C77.9819 199.618 98.6529 210.976 102.334 211.899C110.848 216.729 92.9689 209.419 90.4439 207.412C83.3119 203.41 82.4039 204.247 89.7399 208.308C91.2169 209.172 92.6759 210.081 94.2249 210.819V210.819ZM73.9149 196.466C84.2599 200.298 73.8689 189.194 69.1349 189.836C67.0349 186.193 61.1119 183.891 65.2899 181.936C57.7769 184.546 57.4169 172.016 53.8869 173.809C45.9349 171.298 50.7929 162.404 41.3179 156.939C40.4539 151.183 31.9079 146.194 29.1879 137.516C27.9849 133.07 19.5299 120.313 24.7219 132.186C29.1419 143.616 36.9169 153.413 43.3909 163.189C48.4129 172.499 54.3509 182.237 63.4989 188.044C66.5859 191.006 69.5599 195.537 73.9139 196.466H73.9149ZM44.1239 163.751C44.4819 162.188 46.0139 167.131 44.1239 163.751V163.751ZM86.3069 201.056C88.5949 200.03 83.0109 199.762 86.3069 201.056V201.056ZM91.9169 203.104C91.3359 200.278 89.3539 204.686 91.9169 203.104V203.104ZM98.9469 206.034C102.288 202.847 93.7869 204.024 98.9469 206.034V206.034ZM110.992 212.747C113.025 209.746 104.485 211.617 110.992 212.747V212.747ZM87.8639 196.624C93.0539 193.262 81.1479 196.577 87.8639 196.624V196.624ZM93.1339 199.252C92.9829 197.479 91.2569 200.049 93.1339 199.252V199.252ZM119.479 215.697C123.716 218.372 144.217 221.556 131.381 216.795C129.228 217.247 107.578 210.668 119.479 215.697V215.697ZM77.6559 183.12C77.2439 181.343 71.0759 181.152 77.6559 183.12V183.12ZM89.9159 190.275C93.1129 188.045 83.2919 188.555 89.9159 190.275V190.275ZM100.234 196.598C104.818 194.872 92.8069 194.865 100.234 196.598V196.598ZM72.6599 177.686C77.6299 181.497 92.7099 178.176 80.2709 175.411C74.6149 172.396 61.8639 170.331 70.5559 177.229L72.6599 177.686ZM107.226 198.781C109.298 195.256 98.5409 196.766 107.226 198.781V198.781ZM96.7229 190.436C108.873 193.87 86.5029 182.746 93.7229 189.168L95.3259 189.894L96.7229 190.436ZM117.781 202.606C129.289 202.716 107.383 201.018 117.781 202.606V202.606ZM68.2339 171.028C67.7819 168.884 65.3959 171.206 68.2339 171.028V171.028ZM137.247 213.526C137.554 209.656 133.493 216.41 137.247 213.526V213.526ZM87.8769 183.054C87.1769 181.014 84.2809 182.969 87.8769 183.054V183.054ZM69.3249 169.682C75.9309 169.284 60.2749 166.772 69.3249 169.682V169.682ZM47.3469 155.478C46.5239 152.308 40.1609 149.784 47.3469 155.478V155.478ZM105.042 192.092C103.832 190.711 104.472 192.392 105.042 192.092V192.092ZM140.947 214.129C140.837 212.016 138.992 214.925 140.947 214.129V214.129ZM101.864 188.809C102.512 186.089 96.2279 187.984 101.864 188.809V188.809ZM75.1119 171.853C80.0299 171.329 67.2319 168.531 75.1119 171.853V171.853ZM120.364 199.972C128.027 196.937 112.896 198.493 120.364 199.972V199.972ZM96.8289 183.997C105.656 185.133 86.3209 177.987 94.8869 183.355L96.8289 183.997ZM127.509 202.861C135.756 197.938 133.036 214.403 141.498 204.254C149.841 198.16 134.291 211.787 144.571 205.34C152.012 200.363 162.997 207.7 169.936 210.087C174.924 209.845 179.777 214.403 184.896 211.629C194.744 208.974 165.633 207.694 173.263 202.991C164.253 205.615 157.597 199.866 153.163 194.092C143.053 191.757 131.368 186.592 126.32 177.64C124.26 174.286 129.29 178.118 124.542 172.625C118.454 167.21 115.414 161.056 111.326 154.472C106.441 151.869 105.866 144.199 105.375 154.218C105.415 147.894 99.4769 143.637 98.0249 145.403C97.9989 139.314 104.382 142.368 99.9149 137.863C98.9549 131.552 95.7889 124.975 94.8399 117.847C93.3639 114.414 94.6299 107.058 89.7929 114.832C88.0329 123.052 89.2109 104.736 91.9509 110.772C95.5469 104.612 90.6549 105.337 90.4589 106.188C92.8009 100.99 91.9439 93.613 89.8449 96.425C91.0939 90.912 91.8199 76.141 87.9819 78.763C90.3089 72.996 92.3959 52.383 82.2849 60.245C78.1919 60.303 71.0979 61.73 67.7499 63.397C78.2579 69.191 66.6899 65.489 62.4069 64.567C61.8509 69.929 57.6139 67.614 52.3169 67.666C60.7789 68.712 48.1969 76.316 43.3529 73.362C37.0489 76.37 48.7869 83.89 43.4769 86.217C44.1319 89.716 33.8249 84.95 34.6299 93.045C28.5149 90.467 33.7929 102.644 36.8529 98.525C47.2569 101.343 44.1769 107.758 44.4379 113.858C42.7439 117.408 36.0679 105.508 42.9529 106.058C37.5189 97.235 36.9449 102.866 32.4319 106.966C31.3859 107.261 43.9409 112.798 36.0619 115.532C42.9929 116.605 43.1959 122.673 44.6089 126.512C48.7739 130.852 47.9159 121.717 52.9069 126.937C49.7469 122.287 36.1919 113.837 47.1069 116.547C47.0469 111.871 45.1309 108.097 48.4789 108.188C51.7949 102.192 45.0069 122.98 52.4749 115.356C54.5399 114.454 55.0579 109.353 58.7719 115.84C64.1659 121.15 60.7209 124.993 53.1089 120.129C54.4689 124.752 63.2899 126.399 61.6289 133.626C63.3869 139.982 65.8469 137.64 67.9909 137.274C69.6709 143.447 70.6279 138.909 70.7059 135.966C78.4019 137.616 76.5969 142.166 79.0089 145.344C84.3119 147.736 71.4179 129.12 80.5209 139.746C90.0989 148.397 84.1169 152.006 75.5189 150.621C80.9589 150.181 82.7099 157.978 89.5189 157.703C95.7239 160.658 99.9289 171.997 89.2309 167.275C85.5229 163.927 72.3849 159.801 83.1169 166.164C93.0169 170.754 100.89 173.494 110.443 179.256C117.277 184.134 120.231 189.723 122.821 190.83C117.074 193.575 105.507 188.639 114.098 187.129C108.736 186.154 102.708 183.441 107.84 190.117C112.208 193.766 123.305 193.379 125.3 193.791C123.613 197.506 120.717 197.801 125.365 198.088C120.179 200.854 127.033 201.286 127.51 202.861H127.509ZM116.903 172.906C113.745 169.604 112.928 163.425 116.341 168.798C118.094 169.505 121.946 178.903 116.903 172.906ZM151.45 194.851C153.418 194.721 151.508 196.347 151.45 194.851V194.851ZM111.922 164.811C111.796 159.821 113.058 168.661 111.922 164.811V164.811ZM108.488 160.194C104.513 152.524 113.49 162.365 108.488 160.194V160.194ZM66.8729 131.475C69.2079 130.852 68.0239 135.462 66.8729 131.475V131.475ZM99.9939 149.424C101.426 144.042 101.675 153.937 99.9939 149.424V149.424ZM76.5969 133.154C74.9499 130.186 80.0439 135.941 76.5969 133.154V133.154ZM96.6719 139.589C92.9119 131.167 99.3399 134.985 97.5089 140.969L96.6719 139.589ZM62.0479 116.499C60.3679 113.734 57.5879 105.625 58.4839 103.148C59.2879 107.182 67.0569 120.502 62.2889 108.667C57.0259 98.747 68.5869 111.883 69.7769 114.362C70.3329 116.821 66.5269 113.689 69.1029 119.462C64.4019 112.89 66.3299 123.092 62.0479 116.499ZM51.3499 109.124C51.7879 102.696 53.7959 113.531 51.3499 109.124V109.124ZM56.1629 110.784C58.4579 105.934 60.0529 117.546 56.1629 110.784V110.784ZM44.5819 101.827C40.5989 97.863 37.7149 94.215 44.7709 99.367C47.4849 99.472 38.7299 91.07 45.4259 96.699C52.4609 97.982 48.8969 108.242 44.5819 101.827ZM50.6629 101.67C52.9789 99.375 51.8929 103.926 50.6629 101.67V101.67ZM54.4099 102.866C50.8979 96.294 58.6669 105.626 54.4099 102.866V102.866ZM46.9689 95.759C35.3889 85.445 61.5179 101.146 48.8589 97.667L46.9689 95.759ZM80.1539 115.035C75.1389 112.033 78.8199 93.882 80.5339 106.293C85.4059 104.716 80.2639 112.708 83.8939 112.629C83.3259 117.669 81.6979 119.483 80.1539 115.035ZM92.4279 122.293C92.9179 116.821 93.4609 126.035 92.4279 122.293V122.293ZM90.2969 120.181C90.8459 117.847 90.3489 122.934 90.2969 120.181V120.181ZM49.2369 92.371C41.7969 82.104 70.8619 102.754 54.0049 94.974C52.2449 94.51 50.1209 94.346 49.2369 92.371ZM72.8759 104.901C72.1709 96.256 74.4459 106.331 72.8759 104.901V104.901ZM90.8189 116.414C92.2049 111.491 90.9249 119.672 90.8189 116.414V116.414ZM50.3819 88.454C54.8029 87.506 68.7039 96.216 55.9399 90.939C54.5219 89.369 51.4939 90.082 50.3819 88.453V88.454ZM88.3529 107.378C88.8259 98.538 90.9969 102.101 88.3729 108.647L88.3529 107.377V107.378ZM53.6709 85.375C55.4749 82.732 48.8829 73.428 54.6179 82.039C57.0979 84.007 61.7909 85.335 57.6459 86.165C64.1649 91.914 56.0579 87.722 53.6709 85.375ZM86.4759 104.619C87.7199 94.549 87.5759 110.517 86.4759 104.619V104.619ZM49.9039 76.076C51.2839 75.486 50.6359 77.912 49.9039 76.076V76.076ZM58.4639 81.17C60.6659 76.546 62.5239 86.322 58.4639 81.17V81.17ZM82.5989 94.594C82.5789 92.822 83.0559 97.177 82.5989 94.594V94.594ZM81.1989 91.502C77.8509 83.236 84.3189 95.876 81.1989 91.502V91.502ZM79.1449 86.08C78.5849 82.666 81.0549 90.37 79.1449 86.08V86.08ZM82.4929 80.64C80.1919 76.591 85.3979 62.788 85.9799 71.348C83.5529 78.018 85.2799 81.746 86.9659 72.8C90.0929 65.764 86.2929 86.696 82.4929 80.64ZM85.9329 60.114C86.9349 58.884 86.1559 61.597 85.9329 60.114V60.114ZM80.1869 173.324C78.8259 172.134 80.3619 174.077 80.1869 173.324V173.324ZM92.0219 179.308C98.6059 181.002 98.5739 178.287 92.6219 177.476C89.4249 174.502 79.3219 171.343 88.3659 177.11C88.9619 178.628 90.8519 178.588 92.0219 179.308ZM68.6519 163.783C72.2739 166.492 82.3109 171.447 73.8169 164.818C76.6809 161.488 68.3369 159.717 71.1039 157.488C64.0609 153.177 65.5439 153.563 70.4829 153.701C62.0209 149.914 71.7049 150.202 71.2479 148.261C67.9849 147.619 55.0369 142.505 62.6549 148.679C54.9129 144.735 60.8099 150.15 58.4699 149.581C50.5499 147.423 65.5199 155.611 57.2139 153.577C61.7529 157.173 69.4359 162.797 59.1299 157.382C57.7769 159.337 66.5069 162.3 68.6509 163.783H68.6519ZM81.0289 170.898C96.0759 175.744 73.6459 164.967 81.0289 170.898V170.898ZM144.393 209.282C144.589 206.294 142.339 211.832 144.393 209.282V209.282ZM150.906 212.022C154.378 208.662 151.05 217.384 156.66 211.199C156.718 206.771 156.49 204.157 150.213 209.537C148.479 210.499 147.709 214.572 150.906 212.023V212.022ZM47.5239 147.098C46.4569 142.906 40.0489 142.924 47.5239 147.098V147.098ZM54.4739 151.654C51.8909 147.372 45.2599 147.777 54.4739 151.654V151.654ZM94.0419 175.515C97.9079 178.949 111.783 178.033 98.7319 175.941C96.8019 173.083 86.4639 173.77 94.0419 175.515ZM148.427 209.108C154.371 204.118 142.667 211.331 148.427 209.108V209.108ZM160.793 217.601C160.831 215.999 158.23 218.301 160.793 217.601V217.601ZM160.813 215.358C167.397 208.388 154.437 215.77 160.813 215.358V215.358ZM30.4169 132.776C24.8069 124.772 26.9319 121.175 21.5179 114.636C20.4899 109.634 12.2329 98.295 17.2479 110.307C21.8379 117.337 23.1979 128.217 30.4179 132.776H30.4169ZM158.746 213.141C170.864 205.313 153.777 209.734 158.746 213.141V213.141ZM167.993 216.763C174.061 211.557 164.154 215.677 167.993 216.763V216.763ZM45.4629 138.248C47.1969 135.665 40.9779 137.915 45.4629 138.248V138.248ZM166.063 214.291C171.935 210.506 164.71 211.087 164.998 214.637L166.063 214.291ZM86.3649 164.058C86.1629 161.495 83.2599 164.274 86.3649 164.058V164.058ZM91.2889 166.89C89.7199 163.725 88.8829 167.387 91.2889 166.89V166.89ZM175.486 216.849C183.012 211.42 170.929 215.808 173.91 217.882L175.486 216.849ZM172.603 215.456C178.736 210.322 166.135 217.731 172.603 215.456V215.456ZM187.327 225.257C191.442 222.504 182.326 224.368 187.327 225.257V225.257ZM49.2369 136.385C54.7489 137.62 71.2789 149.966 61.5299 137.242C56.5349 135.764 59.5299 123.555 54.4359 125.713C57.8559 131.428 57.2459 133.853 50.0659 130.258C41.0499 125.85 44.9989 132.436 46.7659 134.254C44.3579 134.803 49.9429 136.34 49.2359 136.384L49.2369 136.385ZM24.1069 116.54C25.0939 112.452 15.0109 94.071 19.3469 107.326C20.9089 110.105 20.7469 115.368 24.1069 116.54V116.54ZM70.2329 144.977C67.3889 142.604 70.0959 144.637 70.2329 144.977V144.977ZM77.2229 146.607C77.2229 142.277 69.4949 144.847 77.2229 146.607V146.607ZM137.841 184.814C136.684 181.857 133.271 184.748 137.841 184.814V184.814ZM140.751 186.938C140.318 185.284 139.069 187.259 140.751 186.938V186.938ZM164.775 202.076C167.084 200.37 161.891 201.855 164.775 202.076V202.076ZM36.6559 119.744C43.2659 117.186 29.5729 117.919 36.6559 119.744V119.744ZM132.504 180.124C132.427 175.848 128.287 181.191 132.504 180.124V180.124ZM34.0459 113.655C38.2899 112.225 30.1159 112.715 34.0459 113.655V113.655ZM46.3659 119.625C46.2929 118.22 45.0649 120.162 46.3659 119.625V119.625ZM196.666 211.793C202.126 210.688 214.57 214.573 216.577 210.349C209.947 210.185 193.645 205.666 192.873 211.42L194.325 211.65L196.667 211.793H196.666ZM50.2819 120.613C50.3819 116.277 46.9019 120.45 50.2819 120.613V120.613ZM17.8899 98.138C16.4189 89.878 12.2919 96.888 17.8899 98.138V98.138ZM25.6119 100.08C25.7109 97.425 18.5419 97.693 25.6119 100.08V100.08ZM30.0259 102.251C28.7509 101.217 29.0319 103.551 30.0259 102.251V102.251ZM57.8099 120.07C59.1189 118.866 54.7109 119.181 57.8099 120.07V120.07ZM27.0899 97.36C26.3389 91.122 18.1379 96.425 27.0899 97.36V97.36ZM11.2449 87.08C11.0219 84.203 9.70088 88.165 11.2449 87.08V87.08ZM13.6049 85.303C13.2199 81.888 11.5779 85.733 13.6049 85.303V85.303ZM26.6199 93.07C32.1259 90.912 16.5939 88.597 25.4949 92.665L26.6199 93.07ZM200.846 200.69C204.37 197.46 196.373 199.69 200.846 200.69V200.69ZM221.895 211.597C223.308 207.426 218.337 212.147 221.895 211.597V211.597ZM27.9499 86.25C28.5329 82.21 23.5829 87.054 27.9499 86.25V86.25ZM9.42688 73.84C8.43288 68.138 8.56988 58.126 18.0849 61.507C5.38488 64.031 26.8799 77.297 24.1659 66.822C29.5079 67.085 34.6159 63.665 31.8099 68.849C42.3379 67.692 49.6299 58.564 59.7969 59.846C67.7149 58.794 76.3729 58.002 84.9069 54.811C91.9229 54.307 98.6769 46.754 94.8339 42.275C85.2669 41.465 75.2479 42.661 64.6749 44.767C52.9579 47.199 42.3129 51.828 30.4889 53.817C18.9599 55.367 32.8039 58.08 29.5009 58.688C23.4909 60.774 36.6749 62.18 28.7229 64.383C23.8129 63.449 18.6989 61.762 20.7979 56.583C9.75988 58.021 0.0558796 62.598 8.77988 73.832L9.42788 73.838L9.42688 73.84ZM36.0349 60.29C38.6179 50.757 49.8969 68.138 40.2719 61.559C39.1269 60.695 37.2299 59.995 36.0349 60.29ZM36.5369 55.666C40.2719 52.888 38.5189 57.23 36.5369 55.666V55.666ZM41.2779 55.746C41.6199 51.358 52.1409 58.067 43.0119 57.322L41.2779 55.745V55.746ZM47.7649 53.137C50.1389 50.363 48.4529 55.595 47.7649 53.137V53.137ZM49.4269 52.026C53.3759 47.285 71.7699 48.997 58.3059 51.56C54.6959 48.84 51.9309 53.162 49.4269 52.026ZM73.4369 48.324C72.8429 35.369 85.3709 52.921 73.4369 48.324V48.324ZM80.2519 48.284C82.7419 41.759 89.9219 45.663 81.4089 46.97C81.5909 47.67 81.1539 50.345 80.2519 48.284ZM25.2649 82.902C32.7049 78.344 17.3649 78.947 25.2649 82.902V82.902ZM30.7699 84.426C33.3799 81.654 25.0939 83.301 30.7699 84.426V84.426ZM14.5539 72.924C18.8039 69.654 9.51888 71.682 14.5539 72.924V72.924ZM234.318 210.407C234.442 206.614 231.068 212.113 234.318 210.407V210.407ZM211.987 195.164C212.621 190.804 209.117 195.544 211.987 195.164V195.164ZM240.458 211.879C246.403 211.899 258.472 210.027 245.538 210.034C243.505 210.349 233.71 210.284 240.458 211.879ZM35.6099 81.75C40.4229 81.423 43.1359 76.446 34.6739 76.728C21.5639 75.375 46.2409 81.221 32.9939 79.547C31.2159 80.724 35.5039 82.077 35.6099 81.75ZM39.8469 83.896C39.3429 80.809 38.3549 85.536 39.8469 83.896V83.896ZM44.8749 70.49C46.9609 67.9 41.9849 69.797 44.8749 70.49V70.49ZM28.8669 43.74C37.4599 40.824 49.2039 37.541 53.2589 45.18C49.1319 40.217 51.5919 35.325 55.4889 42.59C61.0009 49.934 63.7589 39.249 60.1759 36.783C64.2639 41.857 68.9059 44.258 62.9089 37.105C69.4289 29.264 49.8639 38.131 45.4179 38.039C43.2799 38.999 23.3289 43.126 28.8679 43.74H28.8669ZM33.9019 34.103C38.8009 30.409 50.8449 36.306 43.1159 30.427C42.3579 29.761 26.1939 34.887 33.9019 34.103ZM51.7609 34.841C57.4889 34.985 49.2899 27.138 56.1159 30.695C54.9979 27.034 48.1649 26.347 44.8239 24.883C42.9339 28.231 48.6669 34.887 51.7609 34.841V34.841ZM37.0339 18.63C39.0159 15.943 33.5559 19.997 37.0339 18.63V18.63ZM44.3339 20.375C53.5719 19.153 41.9779 16.4 42.4679 20.278L44.3329 20.375H44.3339ZM30.7039 9.717C24.1969 1.223 42.9389 11.143 36.3269 2.249C30.7629 -2.177 25.4209 7.239 30.7039 9.717V9.717ZM114.174 54.674C117.158 49.389 101.862 47.546 112.167 52.802C113.115 53.117 112.901 55.039 114.174 54.674ZM53.6079 251.495C52.9479 254.101 52.5389 258.474 52.3859 264.612C52.3859 265.818 51.8429 266.422 50.7539 266.422C49.6649 266.422 48.9069 265.895 48.4779 264.846C47.3119 262.008 46.2079 260.029 45.1539 258.899C43.9119 257.579 42.2599 256.781 40.1989 256.509C37.9839 256.159 32.4659 255.984 23.6439 255.984C21.6239 255.984 20.3009 256.199 19.6809 256.628C19.2919 256.898 19.0979 257.482 19.0979 258.377V284.786C19.0979 285.68 19.6609 286.106 20.7859 286.069C24.2469 286.029 29.2599 285.793 35.8259 285.369C37.1099 285.211 37.9759 284.794 38.4219 284.113C38.8719 283.433 39.3089 281.677 39.7339 278.838C40.0039 277.283 40.9199 276.68 42.4739 277.032C43.7939 277.304 44.3619 277.907 44.1669 278.838C43.0769 284.126 42.7249 291.005 43.1139 299.478C43.1549 300.486 42.5139 301.032 41.1909 301.11C40.1009 301.227 39.4209 300.643 39.1509 299.36C38.1429 294.503 36.2639 291.907 33.5269 291.575C30.7869 291.247 26.3239 291.081 20.1469 291.081C19.4469 291.081 19.0979 291.332 19.0979 291.838V318.073C19.0979 320.017 19.8149 321.34 21.2519 322.037C22.3819 322.62 24.8099 323.146 28.5389 323.612C30.4459 323.806 31.2789 324.644 31.0489 326.118C30.8139 327.401 29.1059 327.907 25.9159 327.635C16.7059 326.895 9.10588 326.935 3.12288 327.754C1.44988 327.984 0.61688 327.304 0.61688 325.713C0.61688 324.7 1.44988 324.118 3.12288 323.963C6.93188 323.534 8.83488 320.191 8.83488 313.936V264.028C8.83488 261.466 8.37688 259.494 7.46588 258.113C6.55088 256.733 4.84988 255.478 2.36588 254.352C0.80988 253.652 0.22788 252.701 0.61588 251.495C0.80988 250.758 1.12188 250.348 1.54688 250.272C1.93588 250.154 2.96788 250.232 4.63588 250.506C7.08588 250.894 12.8589 251.089 21.9519 251.089C32.6809 251.089 41.9479 250.854 49.7619 250.389C52.3649 250.231 53.6689 250.446 53.6689 251.029C53.6689 251.187 53.6489 251.34 53.6079 251.495V251.495ZM91.4149 325.502C91.4149 327.057 90.5399 327.737 88.7919 327.542C83.4319 327.036 76.7839 327.112 68.8559 327.773C67.2609 327.931 66.2819 327.89 65.9099 327.66C65.5399 327.425 65.3579 326.785 65.3579 325.732C65.3579 324.802 66.4149 324.016 68.5329 323.372C70.6539 322.733 71.7099 320.818 71.7099 317.632V264.87C71.7099 261.72 71.2529 259.408 70.3419 257.93C69.4269 256.453 67.8239 255.307 65.5319 254.493C64.3259 254.063 63.7219 253.461 63.7219 252.683C63.7219 251.517 64.5969 250.643 66.3459 250.06C68.9899 249.205 71.7309 247.886 74.5689 246.096C76.9009 244.696 78.3789 243.999 78.9979 243.999C80.4349 243.999 81.1569 244.987 81.1569 246.97C81.1569 246.817 81.0789 248.76 80.9209 252.8C80.8079 256.647 80.7679 260.436 80.8079 264.17L81.0379 316.23C81.0379 318.602 81.6219 320.323 82.7879 321.392C83.9539 322.46 85.9579 323.169 88.7919 323.518C90.5399 323.711 91.4149 324.372 91.4149 325.501V325.502ZM144.144 322.064C144.144 322.882 142.658 324.114 139.686 325.764C136.711 327.417 134.33 328.243 132.544 328.243C131.026 328.243 129.687 327.506 128.521 326.028C127.355 324.551 126.536 323.814 126.071 323.814C125.722 323.814 123.876 324.611 120.531 326.202C117.192 327.797 113.828 328.595 110.447 328.595C107.261 328.595 104.597 327.66 102.46 325.798C100.128 323.736 98.9619 320.938 98.9619 317.4C98.9619 310.676 106.658 305.858 122.05 302.943C124.69 302.437 126.034 301.368 126.07 299.736L126.189 296.004C126.423 289.631 123.605 286.445 117.735 286.445C116.063 286.445 114.48 287.939 112.981 290.931C111.488 293.927 109.338 295.538 106.54 295.773C103.354 296.081 101.759 294.741 101.759 291.749C101.759 289.882 104.131 287.709 108.872 285.219C113.848 282.616 118.63 281.312 123.216 281.312C131.104 281.312 135.01 285.065 134.933 292.566L134.698 316.583C134.662 319.11 135.731 320.372 137.905 320.372C138.334 320.372 139.151 320.276 140.354 320.081C141.561 319.887 142.261 319.789 142.456 319.789C143.581 319.789 144.144 320.55 144.144 322.064V322.064ZM126.189 308.774C126.229 307.801 126.002 307.157 125.516 306.85C125.03 306.539 124.266 306.477 123.216 306.672C113.848 308.344 109.164 311.396 109.164 315.826C109.164 320.296 111.593 322.53 116.451 322.53C118.395 322.53 120.399 322.162 122.455 321.425C124.868 320.567 126.071 319.539 126.071 318.332L126.189 308.773V308.774ZM187.488 315.357C187.488 319.477 185.9 322.754 182.735 325.182C179.568 327.612 175.245 328.826 169.763 328.826C166.111 328.826 162.455 328.438 158.803 327.66C155.653 326.96 153.827 326.32 153.322 325.737C153.01 325.19 152.856 322.531 152.856 317.749C152.856 315.689 153.322 314.619 154.256 314.543C155.188 314.425 155.986 314.932 156.646 316.057C159.56 321.15 164.264 323.697 170.755 323.697C176.232 323.697 178.973 321.79 178.973 317.98C178.973 316.312 178.353 314.911 177.107 313.785C175.746 312.502 173.107 311.005 169.18 309.295C163.504 306.77 159.714 304.555 157.811 302.648C155.75 300.628 154.721 297.908 154.721 294.486C154.721 290.287 156.334 287.025 159.56 284.693C162.552 282.437 166.556 281.312 171.568 281.312C174.718 281.312 177.593 281.562 180.2 282.069C182.998 282.575 184.455 283.195 184.572 283.935C184.88 286.109 185.524 289.259 186.496 293.381C186.613 293.883 186.066 294.292 184.864 294.603C183.58 294.875 182.726 294.66 182.297 293.963C179.228 288.947 175.342 286.441 170.637 286.441C165.313 286.441 162.65 288.151 162.65 291.571C162.65 293.477 163.37 294.991 164.807 296.117C166.091 297.089 169.102 298.607 173.844 300.668C178.819 302.805 182.2 304.729 183.99 306.438C186.322 308.652 187.488 311.628 187.488 315.357ZM256.075 325.56C256.075 326.92 255.16 327.64 253.334 327.717C250.613 327.757 247.054 327.951 242.666 328.3C240.488 328.729 238.933 328.458 238.002 327.486C231.86 320.879 226.65 313.96 222.374 306.729C222.026 306.109 221.58 305.798 221.034 305.798C220.374 305.798 219.229 306.381 217.597 307.548C215.767 308.556 214.856 309.996 214.856 311.858C214.856 313.182 214.892 315.085 214.973 317.576C215.051 320.061 215.67 321.692 216.836 322.47C217.653 323.017 219.541 323.442 222.491 323.754C224.318 323.988 225.233 324.668 225.233 325.794C225.233 326.689 225.087 327.244 224.795 327.454C224.505 327.668 223.735 327.717 222.491 327.6C218.605 327.252 212.038 327.446 202.788 328.183C200.456 328.377 199.192 328.085 198.998 327.308C198.921 327.038 198.88 326.648 198.88 326.142C198.88 324.94 200.067 324.024 202.44 323.406C204.577 322.858 205.645 320.352 205.645 315.883V264.928C205.645 261.742 205.335 259.527 204.71 258.284C203.856 256.689 202.066 255.445 199.346 254.551C198.066 254.126 197.423 253.523 197.423 252.745C197.423 251.615 198.338 250.741 200.163 250.122C203.101 249.139 205.902 247.787 208.499 246.098C210.638 244.701 211.961 244 212.463 244C214.059 244 214.856 245.008 214.856 247.033C214.856 246.758 214.836 248.685 214.795 252.803C214.753 256.612 214.734 260.422 214.739 264.231L214.856 300.725C214.856 301.737 215.127 302.239 215.67 302.239C216.253 302.239 217.148 301.737 218.354 300.725C221.58 298.198 225.544 294.895 230.245 290.814C231.18 289.843 231.645 289.065 231.645 288.482C231.645 287.434 230.071 286.692 226.925 286.268C225.565 286.109 224.921 285.353 224.997 283.992C225.115 282.632 225.796 282.049 227.038 282.243C229.84 282.633 233.921 282.847 239.281 282.887C243.014 282.923 246.726 282.944 250.419 282.944C251.621 282.984 252.225 283.701 252.225 285.102C252.225 286.422 251.273 287.142 249.37 287.26C246.374 287.373 243.556 288.053 240.917 289.3C237.224 290.968 233.277 293.903 229.079 298.102C228.771 298.336 228.613 298.627 228.613 298.976C228.613 299.519 229.273 300.823 230.597 302.883C235.455 310.268 240.042 315.843 244.354 319.615C247.115 321.985 249.698 323.17 252.107 323.17C253.897 323.17 255.005 323.296 255.43 323.55C255.86 323.803 256.075 324.474 256.075 325.56V325.56Z" fill="black"/>
</g>
<defs>
<clipPath id="clip0_307_34">
<rect width="256" height="329" fill="white" transform="translate(0.5)"/>
</clipPath>
</defs>
</svg>
