<svg width="257" height="256" viewBox="0 0 257 256" fill="none" xmlns="http://www.w3.org/2000/svg">
<g clip-path="url(#clip0_307_22)">
<path d="M0.5 0H256.5V256H0.5V0Z" fill="#F7DF1E"/>
<path d="M67.812 213.932L87.402 202.076C91.182 208.777 94.62 214.447 102.867 214.447C110.772 214.447 115.757 211.355 115.757 199.327V117.529H139.814V199.667C139.814 224.584 125.208 235.926 103.898 235.926C84.653 235.926 73.482 225.959 67.811 213.93M152.881 211.354L172.469 200.013C177.626 208.434 184.328 214.62 196.184 214.62C206.153 214.62 212.509 209.636 212.509 202.762C212.509 194.514 205.979 191.592 194.981 186.782L188.968 184.202C171.611 176.815 160.098 167.535 160.098 147.945C160.098 129.901 173.845 116.153 195.326 116.153C210.62 116.153 221.618 121.481 229.522 135.4L210.79 147.43C206.665 140.041 202.199 137.12 195.325 137.12C188.279 137.12 183.811 141.588 183.811 147.43C183.811 154.647 188.279 157.57 198.589 162.038L204.603 164.615C225.053 173.38 236.566 182.315 236.566 202.419C236.566 224.073 219.554 235.929 196.699 235.929C174.36 235.929 159.925 225.275 152.88 211.355" fill="black"/>
</g>
<defs>
<clipPath id="clip0_307_22">
<rect width="256" height="256" fill="white" transform="translate(0.5)"/>
</clipPath>
</defs>
</svg>
