<svg width="513" height="349" viewBox="0 0 513 349" fill="none" xmlns="http://www.w3.org/2000/svg">
<g clip-path="url(#clip0_307_36)">
<path d="M152.81 230.297L168.37 280.784C171.866 292.247 173.324 300.249 172.74 304.81C181.25 282.018 187.196 257.18 190.579 230.297H209.289C201.244 274.063 190.633 305.867 177.462 325.707C167.2 340.996 155.958 348.64 143.716 348.64C140.452 348.64 136.428 347.654 131.653 345.696V335.146C133.986 335.488 136.723 335.671 139.871 335.671C145.582 335.671 150.185 334.088 153.687 330.929C157.88 327.08 159.979 322.754 159.979 317.959C159.979 314.685 158.342 307.966 155.083 297.802L133.403 230.297H152.809H152.81ZM33.723 199.266L62.223 286.222H62.399L91.074 199.266H114.502C119.632 242.39 122.662 281.847 123.592 317.612H103.84C103.145 284.179 101.22 252.741 98.072 223.292H97.9L67.822 317.612H52.78L22.884 223.292H22.708C20.49 251.574 19.094 283.012 18.512 317.612H0.5C1.664 275.532 4.577 236.087 9.239 199.266H33.724H33.723Z" fill="#00758F"/>
<path d="M352.998 197.51C383.655 197.51 398.984 217.096 398.984 256.249C398.984 277.525 394.374 293.596 385.163 304.453C383.503 306.437 381.668 308.151 379.736 309.739L401.431 320.466L401.41 320.465L393.707 333.767L365.454 317.282C360.771 318.669 355.618 319.362 350.003 319.362C334.95 319.362 323.706 314.975 316.272 306.212C308.112 296.518 304.034 281.257 304.034 260.455C304.034 239.299 308.636 223.289 317.85 212.418C326.242 202.474 337.96 197.509 352.998 197.509V197.51ZM259.118 197.682C270.075 197.682 280.038 200.614 289.012 206.457L284.454 216.614C276.775 213.35 269.204 211.711 261.738 211.711C255.68 211.711 251.012 213.169 247.758 216.103C244.486 219.011 242.462 222.753 242.462 227.315C242.462 234.325 247.456 240.404 256.677 245.54C259.698 247.191 262.708 248.862 265.708 250.551L266.396 250.938L266.741 251.132L267.43 251.519L267.774 251.713L268.462 252.101C275.442 256.036 282.01 259.792 282.01 259.792C291.23 266.337 295.826 273.315 295.826 284.808C295.826 294.845 292.148 303.084 284.816 309.531C277.479 315.949 267.622 319.167 255.278 319.167C243.733 319.167 232.544 315.463 221.706 308.117L226.776 297.951C236.103 302.626 244.543 304.961 252.122 304.961C259.23 304.961 264.794 303.374 268.819 300.24C272.836 297.083 275.243 292.68 275.243 287.097C275.243 280.07 270.355 274.063 261.388 269.024C258.581 267.473 255.783 265.908 252.993 264.327L252.306 263.938C251.044 263.225 249.773 262.503 248.528 261.796L247.853 261.412C241.798 257.968 236.563 254.959 236.563 254.959C227.599 248.402 223.104 241.367 223.104 229.775C223.104 220.188 226.456 212.439 233.15 206.544C239.86 200.636 248.517 197.682 259.118 197.682V197.682ZM435.013 199.266V303.054H472.251V317.612H416.127V199.266H435.013ZM492.943 303.099V305.559H488.849V317.599H485.719V305.559H481.466V303.099H492.944H492.943ZM500.503 303.099L504.434 312.983L508.045 303.099H512.482V317.599H509.532V306.564L505.422 317.599H503.295L499.178 306.564H499.02V317.599H496.229V303.099H500.504H500.503ZM351.07 212.064C333.004 212.064 323.966 226.974 323.966 256.774C323.966 273.844 326.361 286.222 331.142 293.937C335.57 301.077 342.505 304.64 351.948 304.64C370.014 304.64 379.051 289.614 379.051 259.576C379.051 242.745 376.656 230.473 371.881 222.754C367.448 215.63 360.516 212.064 351.071 212.064H351.07Z" fill="#F29111"/>
<path d="M303.718 7.333C309.711 -7.393 330.666 3.759 338.798 8.903C340.791 10.19 343.077 12.909 345.362 13.914C348.927 14.054 352.489 14.333 356.06 14.482C362.758 16.056 369.032 17.342 374.31 20.348C398.838 34.793 414.805 49.513 429.5 73.827C432.64 78.977 434.209 84.55 436.774 90.123C440.334 98.43 444.334 107.15 448.466 115.005C450.316 118.729 451.747 122.87 454.316 126.015C455.319 127.453 458.168 127.877 459.871 128.736C464.579 131.173 470.283 133.023 474.711 135.883C482.98 141.039 490.975 147.183 498.243 153.473C500.952 155.901 502.798 159.338 505.379 161.906V163.202C503.088 163.905 500.805 164.625 498.52 165.202C493.529 166.484 489.108 166.194 484.266 167.477C481.274 168.345 477.559 169.49 474.421 169.781L474.711 170.073C476.557 175.348 486.545 179.638 491.113 182.793C496.661 186.797 501.802 191.653 505.94 197.23C507.369 198.653 508.798 199.948 510.22 201.367C511.214 202.805 511.494 204.665 512.5 205.947V206.381C511.386 205.988 510.585 205.238 509.826 204.454L509.373 203.981C508.92 203.511 508.463 203.049 507.942 202.668C504.794 200.518 501.668 197.946 498.52 195.947C493.108 192.513 486.831 190.52 481.274 187.073C478.132 185.072 475.137 182.793 472.142 180.503C469.427 178.496 466.437 174.642 464.731 171.782C463.726 170.202 463.588 168.345 462.44 167.202C462.645 165.293 464.394 164.726 466.159 164.26L466.565 164.153C467.174 163.995 467.77 163.837 468.29 163.628C475.704 160.48 484.543 159.338 495.957 159.624C495.527 156.758 488.395 153.187 486.118 151.471C481.548 148.177 476.709 144.74 471.861 141.742C469.292 140.172 464.865 139.026 462.019 137.743C458.168 136.169 449.609 134.596 447.475 131.598C443.85 126.872 441.246 121.235 438.718 115.541L438.03 113.987C437.801 113.469 437.571 112.951 437.34 112.434C434.352 105.577 430.64 98.428 427.645 91.407C426.079 87.982 425.36 84.976 423.645 81.691C413.238 61.533 397.835 44.656 379.16 32.787C373.023 28.925 366.18 25.351 358.626 22.922C354.345 21.629 349.207 22.344 344.646 21.352H341.644C339.082 20.63 336.943 17.914 334.944 16.482C330.529 13.484 326.107 11.471 320.827 9.332C318.977 8.474 313.694 6.476 311.85 8.049C310.708 8.336 310.129 8.767 309.848 9.913C308.712 11.623 309.711 14.199 310.418 15.776C312.56 20.346 315.552 23.062 318.268 26.924C320.684 30.349 323.685 34.211 325.398 37.935C329.094 45.94 330.815 54.809 334.24 62.813C335.51 65.823 337.519 69.248 339.368 71.963C340.935 74.118 343.784 75.676 344.646 78.404C346.364 81.264 342.074 90.701 341.081 93.698C337.366 105.425 338.086 121.726 342.364 131.891L342.592 132.427L342.82 132.97C344.382 136.693 346.054 140.702 350.207 141.743C350.493 141.459 350.207 141.608 350.774 141.459C351.779 133.591 352.062 126.014 354.774 119.858C356.341 116.009 359.47 113.288 361.615 110.146C363.045 111.002 363.045 113.583 363.897 115.291C365.753 119.721 367.746 124.578 370.034 129.021C374.73 138.171 380.014 147.042 386.001 155.046C388.006 157.905 390.851 161.052 393.417 163.627C394.56 164.624 395.84 165.2 396.699 166.483H396.979V166.915C392.701 165.338 389.989 160.912 386.577 158.328C380.153 153.471 372.46 146.177 368.032 139.178C366.18 135.16 364.178 131.309 362.182 127.311V127.022C361.329 128.164 361.615 129.298 361.188 131.026C359.336 138.171 360.762 146.322 354.345 148.892C347.071 151.902 341.645 144.035 339.368 140.46C332.092 128.594 330.099 108.576 335.23 92.417C336.37 88.84 336.525 84.55 338.515 81.694C338.085 79.112 336.095 78.406 334.944 76.824C332.948 74.12 331.239 70.97 329.676 67.967C326.674 62.101 324.538 55.092 322.259 48.801C321.257 46.232 320.97 43.653 319.971 41.221C318.267 37.509 315.126 33.785 312.703 30.501C309.422 25.781 299.866 16.633 303.718 7.333V7.333ZM350.49 35.348C350.871 35.73 351.331 36.064 351.807 36.393L352.381 36.787C353.146 37.317 353.887 37.875 354.341 38.635C355.061 39.641 355.195 40.634 356.057 41.642C356.057 45.079 355.061 47.364 353.05 48.788C353.05 48.788 352.913 48.938 352.772 49.078C351.632 46.787 350.633 44.508 349.485 42.219C348.071 40.221 346.072 38.636 344.92 36.353H344.643V36.066C346.364 35.641 348.071 35.348 350.49 35.348Z" fill="#00758F"/>
</g>
<defs>
<clipPath id="clip0_307_36">
<rect width="512" height="349" fill="white" transform="translate(0.5)"/>
</clipPath>
</defs>
</svg>
