<svg width="257" height="289" viewBox="0 0 257 289" fill="none" xmlns="http://www.w3.org/2000/svg">
<g clip-path="url(#clip0_307_25)">
<path d="M128.5 288.464C124.525 288.464 120.815 287.404 117.37 285.549L82.123 264.613C76.823 261.698 79.473 260.638 81.063 260.108C88.218 257.723 89.543 257.193 96.963 252.952C97.759 252.422 98.819 252.687 99.613 253.217L126.645 269.383C127.705 269.913 129.03 269.913 129.825 269.383L235.565 208.166C236.625 207.636 237.155 206.576 237.155 205.251V83.08C237.155 81.755 236.625 80.695 235.565 80.165L129.825 19.212C128.765 18.682 127.44 18.682 126.645 19.212L20.905 80.166C19.845 80.696 19.315 82.021 19.315 83.081V205.251C19.315 206.311 19.845 207.636 20.905 208.166L49.792 224.861C65.428 232.811 75.232 223.536 75.232 214.261V93.68C75.232 92.09 76.558 90.5 78.413 90.5H91.929C93.519 90.5 95.109 91.825 95.109 93.68V214.26C95.109 235.196 83.713 247.386 63.837 247.386C57.742 247.386 52.972 247.386 39.457 240.761L11.63 224.861C4.74 220.885 0.5 213.465 0.5 205.515V83.346C0.5 75.396 4.74 67.976 11.63 64L117.37 2.783C123.995 -0.927 133.005 -0.927 139.63 2.783L245.37 64C252.26 67.975 256.5 75.395 256.5 83.346V205.516C256.5 213.466 252.26 220.886 245.37 224.861L139.63 286.08C136.185 287.67 132.21 288.465 128.5 288.465V288.464ZM161.096 204.455C114.719 204.455 105.179 183.255 105.179 165.234C105.179 163.644 106.504 162.054 108.359 162.054H122.139C123.729 162.054 125.055 163.114 125.055 164.704C127.175 178.749 133.27 185.64 161.361 185.64C183.622 185.64 193.163 180.605 193.163 168.68C193.163 161.789 190.513 156.754 155.796 153.308C126.91 150.393 108.889 144.033 108.889 120.978C108.889 99.511 126.909 86.791 157.121 86.791C191.042 86.791 207.738 98.451 209.858 123.892C209.858 124.687 209.593 125.482 209.063 126.277C208.533 126.807 207.738 127.337 206.943 127.337H193.163C191.837 127.337 190.513 126.277 190.247 124.952C187.067 110.377 178.852 105.607 157.121 105.607C132.741 105.607 129.825 114.087 129.825 120.447C129.825 128.133 133.27 130.517 166.131 134.757C198.728 138.997 214.098 145.093 214.098 167.884C213.833 191.205 194.753 204.455 161.096 204.455V204.455Z" fill="#539E43"/>
</g>
<defs>
<clipPath id="clip0_307_25">
<rect width="256" height="289" fill="white" transform="translate(0.5)"/>
</clipPath>
</defs>
</svg>
