<svg width="257" height="255" viewBox="0 0 257 255" fill="none" xmlns="http://www.w3.org/2000/svg">
<g clip-path="url(#clip0_307_31)">
<path d="M127.416 0.0719995C62.584 0.0719995 66.632 28.187 66.632 28.187L66.704 57.315H128.572V66.06H42.131C42.131 66.06 0.64502 61.355 0.64502 126.77C0.64502 192.187 36.855 189.867 36.855 189.867H58.465V159.511C58.465 159.511 57.3 123.301 94.097 123.301H155.459C155.459 123.301 189.934 123.858 189.934 89.982V33.97C189.934 33.97 195.17 0.0719995 127.416 0.0719995ZM93.302 19.66C94.764 19.6587 96.2119 19.9457 97.5628 20.5045C98.9138 21.0634 100.141 21.8832 101.175 22.917C102.209 23.9507 103.029 25.1782 103.587 26.5292C104.146 27.8801 104.433 29.328 104.432 30.79C104.433 32.252 104.146 33.6999 103.587 35.0508C103.029 36.4018 102.209 37.6293 101.175 38.663C100.141 39.6968 98.9138 40.5166 97.5628 41.0755C96.2119 41.6343 94.764 41.9213 93.302 41.92C91.84 41.9213 90.3921 41.6343 89.0412 41.0755C87.6903 40.5166 86.4628 39.6968 85.429 38.663C84.3952 37.6293 83.5754 36.4018 83.0166 35.0508C82.4577 33.6999 82.1707 32.252 82.172 30.79C82.1707 29.328 82.4577 27.8801 83.0166 26.5292C83.5754 25.1782 84.3952 23.9507 85.429 22.917C86.4628 21.8832 87.6903 21.0634 89.0412 20.5045C90.3921 19.9457 91.84 19.6587 93.302 19.66V19.66Z" fill="url(#paint0_linear_307_31)"/>
<path d="M129.257 254.126C194.089 254.126 190.041 226.011 190.041 226.011L189.969 196.884H128.1V188.139H214.541C214.541 188.139 256.027 192.844 256.027 127.427C256.027 62.011 219.817 64.331 219.817 64.331H198.207V94.686C198.207 94.686 199.372 130.896 162.575 130.896H101.213C101.213 130.896 66.7381 130.339 66.7381 164.216V220.229C66.7381 220.229 61.5031 254.126 129.256 254.126H129.257ZM163.371 234.54C161.909 234.541 160.461 234.254 159.11 233.695C157.759 233.137 156.532 232.317 155.498 231.283C154.464 230.249 153.644 229.022 153.086 227.671C152.527 226.32 152.24 224.872 152.241 223.41C152.24 221.948 152.527 220.5 153.085 219.149C153.644 217.798 154.464 216.57 155.498 215.536C156.531 214.502 157.759 213.683 159.11 213.124C160.461 212.565 161.909 212.278 163.371 212.279C164.833 212.278 166.281 212.565 167.632 213.124C168.983 213.682 170.21 214.502 171.244 215.536C172.278 216.57 173.098 217.797 173.657 219.148C174.215 220.499 174.502 221.947 174.501 223.409C174.502 224.871 174.215 226.319 173.657 227.67C173.098 229.021 172.278 230.248 171.244 231.282C170.21 232.316 168.983 233.136 167.632 233.694C166.281 234.253 164.833 234.54 163.371 234.539V234.54Z" fill="url(#paint1_linear_307_31)"/>
</g>
<defs>
<linearGradient id="paint0_linear_307_31" x1="25.1871" y1="22.9226" x2="151.747" y2="148.22" gradientUnits="userSpaceOnUse">
<stop stop-color="#387EB8"/>
<stop offset="1" stop-color="#366994"/>
</linearGradient>
<linearGradient id="paint1_linear_307_31" x1="102.869" y1="103.381" x2="238.78" y2="231.861" gradientUnits="userSpaceOnUse">
<stop stop-color="#FFE052"/>
<stop offset="1" stop-color="#FFC331"/>
</linearGradient>
<clipPath id="clip0_307_31">
<rect width="256" height="255" fill="white" transform="translate(0.5)"/>
</clipPath>
</defs>
</svg>
